<svg width="53" height="53" viewBox="0 0 53 53" fill="none" xmlns="http://www.w3.org/2000/svg">
<g filter="url(#filter0_d_120_2)">
<circle cx="26.5" cy="22.5" r="22.5" fill="black"/>
<path d="M24.2689 9C25.7791 9 27.2745 9.28637 28.6697 9.84277C30.065 10.3992 31.3327 11.2147 32.4006 12.2428C33.4685 13.2709 34.3156 14.4914 34.8935 15.8347C35.4714 17.1779 35.7689 18.6176 35.7689 20.0716C35.7689 21.5255 35.4714 22.9652 34.8935 24.3085C34.3156 25.6517 33.4685 26.8723 32.4006 27.9003C31.6822 28.592 35.3694 32.0185 37.8599 34.1873C38.5691 34.8049 38.133 36 37.1925 36H32.4006L25.9248 30.3478C24.7477 29.3204 25.2778 26.3682 26.729 25.7895C27.5089 25.4785 28.2176 25.0226 28.8145 24.4479C29.4115 23.8732 29.885 23.1909 30.2081 22.44C30.5311 21.6891 30.6974 20.8843 30.6974 20.0716C30.6974 19.2588 30.5311 18.454 30.2081 17.7031C29.885 16.9522 29.4115 16.27 28.8145 15.6952C28.2176 15.1205 27.5089 14.6647 26.729 14.3536C25.949 14.0426 25.1131 13.8825 24.2689 13.8825V9Z" fill="white"/>
<path d="M17.217 10C17.217 9.44772 17.6647 9 18.217 9H24.2689V13.9091H18.217C17.6647 13.9091 17.217 13.4614 17.217 12.9091V10Z" fill="white"/>
<path d="M22.4246 17.5648H26.154C27.5096 17.5648 28.6085 18.6637 28.6085 20.0193C28.6085 21.3749 27.5096 22.4738 26.154 22.4738H22.4246V17.5648Z" fill="white"/>
<path d="M17.9999 35.8856C17.4477 35.8801 17.0049 35.4279 17.0109 34.8756L17.1886 18.515C17.1946 17.9628 17.6471 17.5196 18.1994 17.5252L22.4634 17.5681L22.2749 34.9286C22.2689 35.4809 21.8163 35.9241 21.2641 35.9185L17.9999 35.8856Z" fill="white"/>
</g>
<defs>
<filter id="filter0_d_120_2" x="0" y="0" width="53" height="53" filterUnits="userSpaceOnUse" color-interpolation-filters="sRGB">
<feFlood flood-opacity="0" result="BackgroundImageFix"/>
<feColorMatrix in="SourceAlpha" type="matrix" values="0 0 0 0 0 0 0 0 0 0 0 0 0 0 0 0 0 0 127 0" result="hardAlpha"/>
<feOffset dy="4"/>
<feGaussianBlur stdDeviation="2"/>
<feComposite in2="hardAlpha" operator="out"/>
<feColorMatrix type="matrix" values="0 0 0 0 0 0 0 0 0 0 0 0 0 0 0 0 0 0 0.25 0"/>
<feBlend mode="normal" in2="BackgroundImageFix" result="effect1_dropShadow_120_2"/>
<feBlend mode="normal" in="SourceGraphic" in2="effect1_dropShadow_120_2" result="shape"/>
</filter>
</defs>
</svg>
